<svg width="25" height="24" viewBox="0 0 25 24" fill="none" xmlns="http://www.w3.org/2000/svg">
<path d="M16.5 22.75H3.5C2.54 22.75 1.75 21.96 1.75 21V8C1.75 3.58 4.08 1.25 8.5 1.25H16.5C20.92 1.25 23.25 3.58 23.25 8V16C23.25 20.42 20.92 22.75 16.5 22.75ZM8.5 2.75C4.92 2.75 3.25 4.42 3.25 8V21C3.25 21.14 3.36 21.25 3.5 21.25H16.5C20.08 21.25 21.75 19.58 21.75 16V8C21.75 4.42 20.08 2.75 16.5 2.75H8.5Z" fill="#A0A3E6"/>
<path d="M17.5 10.25H7.5C7.09 10.25 6.75 9.91 6.75 9.5C6.75 9.09 7.09 8.75 7.5 8.75H17.5C17.91 8.75 18.25 9.09 18.25 9.5C18.25 9.91 17.91 10.25 17.5 10.25Z" fill="#A0A3E6"/>
<path d="M14.5 15.25H7.5C7.09 15.25 6.75 14.91 6.75 14.5C6.75 14.09 7.09 13.75 7.5 13.75H14.5C14.91 13.75 15.25 14.09 15.25 14.5C15.25 14.91 14.91 15.25 14.5 15.25Z" fill="#A0A3E6"/>
</svg>
