<svg width="23" height="21" viewBox="0 0 23 21" fill="none" xmlns="http://www.w3.org/2000/svg">
<path d="M9.75018 12.0002C9.33596 12.0002 9.00018 12.336 9.00018 12.7502C9.00018 13.1644 9.33596 13.5002 9.75018 13.5002H15.7502C16.1644 13.5002 16.5002 13.1644 16.5002 12.7502C16.5002 12.336 16.1644 12.0002 15.7502 12.0002H9.75018Z" fill="#45474B"/>
<path fill-rule="evenodd" clip-rule="evenodd" d="M1.47778 0.568276C1.37732 0.16643 0.970122 -0.077891 0.568276 0.0225705C0.16643 0.123032 -0.077891 0.530233 0.0225705 0.932079L1.07431 5.13905L2.05312 9.22305C2.46932 10.9596 2.79692 12.3265 3.18566 13.3884C3.58442 14.4777 4.07343 15.3233 4.858 15.9718C4.92571 16.0277 4.99469 16.0821 5.0649 16.1349C5.87835 16.7468 6.81466 17.0252 7.96686 17.1591C9.0901 17.2897 10.4957 17.2897 12.2814 17.2896H12.8748C14.4199 17.2897 15.6362 17.2897 16.616 17.1906C17.6196 17.0891 18.4453 16.8785 19.1885 16.4132C19.5409 16.1925 19.8685 15.9342 20.1652 15.6429C20.7909 15.0287 21.1882 14.2747 21.5208 13.3224C21.8455 12.3927 22.1289 11.2099 22.489 9.70745L22.5099 9.62019C22.7271 8.71427 22.9061 7.9676 22.9752 7.36272C23.047 6.73492 23.0177 6.13716 22.7043 5.59137C22.5703 5.35794 22.4027 5.14545 22.2069 4.9607C21.7492 4.52874 21.1747 4.36094 20.5475 4.28441C19.9431 4.21066 19.1754 4.21068 18.2437 4.2107L2.38839 4.2107L1.47778 0.568276ZM3.50071 8.82712L2.7538 5.7107H18.1951C19.1876 5.7107 19.8631 5.71203 20.3658 5.77336C20.8561 5.83319 21.0571 5.93812 21.1774 6.05161C21.2664 6.13559 21.3426 6.23217 21.4035 6.33828C21.4858 6.48168 21.541 6.70163 21.4849 7.19237C21.4274 7.6955 21.2712 8.35275 21.0399 9.31792C20.6682 10.869 20.4015 11.978 20.1046 12.8278C19.8128 13.6634 19.5136 14.1806 19.1144 14.5725C18.895 14.7878 18.653 14.9787 18.3924 15.1418C17.9183 15.4387 17.3456 15.6091 16.4651 15.6982C15.5694 15.7888 14.4289 15.7896 12.8338 15.7896H12.3291C10.4853 15.7896 9.16669 15.7885 8.14003 15.6692C7.13234 15.552 6.48808 15.3284 5.96654 14.9362C5.91465 14.8971 5.86366 14.8569 5.81362 14.8156C5.31059 14.3998 4.94299 13.8254 4.59424 12.8728C4.23892 11.9022 3.93045 10.6202 3.50071 8.82712Z" fill="#45474B"/>
<path d="M10.2239 19.6975C10.2239 20.2789 9.75258 20.7502 9.17122 20.7502C8.58987 20.7502 8.11859 20.2789 8.11859 19.6975C8.11859 19.1162 8.58987 18.6449 9.17122 18.6449C9.75258 18.6449 10.2239 19.1162 10.2239 19.6975Z" fill="#45474B"/>
<path d="M16.5396 19.6975C16.5396 20.2789 16.0684 20.7502 15.487 20.7502C14.9057 20.7502 14.4344 20.2789 14.4344 19.6975C14.4344 19.1162 14.9057 18.6449 15.487 18.6449C16.0684 18.6449 16.5396 19.1162 16.5396 19.6975Z" fill="#45474B"/>
</svg>
