<svg width="11" height="15" viewBox="0 0 11 15" fill="none" xmlns="http://www.w3.org/2000/svg">
<path fill-rule="evenodd" clip-rule="evenodd" d="M5.5 0.78125C3.8604 0.78125 2.53125 2.1104 2.53125 3.75V3.90625H0.5C0.241117 3.90625 0.03125 4.11612 0.03125 4.375C0.03125 4.63388 0.241117 4.84375 0.5 4.84375H10.5C10.7589 4.84375 10.9688 4.63388 10.9688 4.375C10.9688 4.11612 10.7589 3.90625 10.5 3.90625H8.46875V3.75C8.46875 2.1104 7.1396 0.78125 5.5 0.78125ZM5.5 1.71875C6.62183 1.71875 7.53125 2.62817 7.53125 3.75V3.90625H3.46875V3.75C3.46875 2.62817 4.37817 1.71875 5.5 1.71875Z" fill="#DE3030"/>
<path d="M1.59165 5.58066C1.56716 5.32294 1.33839 5.13386 1.08066 5.15835C0.822939 5.18284 0.633865 5.41161 0.658352 5.66934C0.717395 6.29076 0.823954 7.05645 0.960925 8.04066L1.13689 9.30509C1.30512 10.5143 1.40053 11.2001 1.60693 11.7619C1.99106 12.8074 2.67628 13.6455 3.55754 14.0174C4.03608 14.2193 4.58345 14.2191 5.39833 14.2188H5.60167C6.41655 14.2191 6.96392 14.2193 7.44246 14.0174C8.32372 13.6455 9.00893 12.8074 9.39307 11.7619C9.59947 11.2001 9.69488 10.5143 9.86311 9.30506L10.0391 8.04067C10.176 7.05645 10.2826 6.29076 10.3416 5.66934C10.3661 5.41162 10.1771 5.18284 9.91934 5.15835C9.66162 5.13386 9.43284 5.32294 9.40835 5.58066C9.35146 6.17939 9.2478 6.92502 9.10897 7.92257L8.94501 9.10071C8.76343 10.4055 8.68028 10.9835 8.51308 11.4385C8.19065 12.3161 7.6545 12.9104 7.07798 13.1536C6.7966 13.2724 6.45573 13.2812 5.5 13.2812C4.54427 13.2812 4.2034 13.2724 3.92202 13.1536C3.3455 12.9104 2.80935 12.3161 2.48692 11.4385C2.31972 10.9835 2.23657 10.4055 2.05499 9.10072L1.89103 7.92257C1.7522 6.92502 1.64854 6.17939 1.59165 5.58066Z" fill="#DE3030"/>
<path d="M4.71875 6.25C4.71875 5.99112 4.50888 5.78125 4.25 5.78125C3.99112 5.78125 3.78125 5.99112 3.78125 6.25V11.25C3.78125 11.5089 3.99112 11.7188 4.25 11.7188C4.50888 11.7188 4.71875 11.5089 4.71875 11.25V6.25Z" fill="#DE3030"/>
<path d="M7.21875 6.25C7.21875 5.99112 7.00888 5.78125 6.75 5.78125C6.49112 5.78125 6.28125 5.99112 6.28125 6.25V11.25C6.28125 11.5089 6.49112 11.7188 6.75 11.7188C7.00888 11.7188 7.21875 11.5089 7.21875 11.25V6.25Z" fill="#DE3030"/>
</svg>
