<svg width="23" height="23" viewBox="0 0 23 23" fill="none" xmlns="http://www.w3.org/2000/svg">
<path fill-rule="evenodd" clip-rule="evenodd" d="M11.4505 0.0038652C11.3101 -0.0012884 11.1694 -0.0012884 11.029 0.0038652C10.1016 0.0378859 9.26651 0.353234 8.3509 0.878175C7.45863 1.38974 6.43139 2.13608 5.12801 3.08305L5.05716 3.13453C3.75376 4.08149 2.7265 4.82783 1.96425 5.51835C1.18206 6.22693 0.624099 6.92368 0.305168 7.79515C0.256855 7.92717 0.213399 8.06091 0.174889 8.19611C-0.0793312 9.08861 -0.0374684 9.98026 0.178842 11.0133C0.389639 12.02 0.782016 13.2275 1.27987 14.7598L3.01444 20.0982C3.3883 21.2488 4.46055 22.0279 5.6704 22.0279C7.21273 22.0279 8.46304 20.7776 8.46304 19.2352V16.4863C8.46304 15.842 8.98536 15.3197 9.62967 15.3197H12.8498C13.4941 15.3197 14.0165 15.842 14.0165 16.4863V19.2352C14.0165 20.7776 15.2668 22.0279 16.8091 22.0279C18.019 22.0279 19.0912 21.2488 19.4651 20.0982L21.1996 14.7597C21.6975 13.2275 22.0899 12.0199 22.3007 11.0133C22.517 9.98026 22.5588 9.08861 22.3046 8.19611C22.2661 8.06091 22.2227 7.92717 22.1743 7.79515C21.8554 6.92368 21.2974 6.22693 20.5153 5.51835C19.753 4.82782 18.7257 4.08149 17.4223 3.13452L17.3515 3.08303C16.0481 2.13607 15.0209 1.38973 14.1286 0.878175C13.213 0.353234 12.3779 0.0378859 11.4505 0.0038652ZM11.0839 1.50286C11.1878 1.49905 11.2917 1.49905 11.3956 1.50286C11.991 1.5247 12.584 1.72167 13.3825 2.17948C14.1963 2.64603 15.1587 3.34396 16.5053 4.32232C17.8518 5.30068 18.813 6.00026 19.5082 6.63002C20.1903 7.24798 20.5609 7.75112 20.7657 8.31067C20.8014 8.40824 20.8335 8.50709 20.862 8.60703C21.0252 9.18007 21.0211 9.80495 20.8325 10.7058C20.6403 11.624 20.2739 12.7549 19.7595 14.3379L18.0385 19.6347C17.8654 20.1673 17.3691 20.5279 16.8091 20.5279C16.0952 20.5279 15.5165 19.9491 15.5165 19.2352V16.4863C15.5165 15.0136 14.3226 13.8197 12.8498 13.8197H9.62967C8.15693 13.8197 6.96304 15.0136 6.96304 16.4863V19.2352C6.96304 19.9491 6.38431 20.5279 5.6704 20.5279C5.11039 20.5279 4.61407 20.1673 4.44102 19.6347L2.71999 14.3379C2.20564 12.7549 1.83925 11.624 1.647 10.7058C1.45835 9.80495 1.45428 9.18007 1.61751 8.60703C1.64597 8.5071 1.67809 8.40824 1.7138 8.31067C1.91857 7.75112 2.28917 7.24798 2.97131 6.63002C3.6665 6.00026 4.62766 5.30068 5.97425 4.32232C7.32085 3.34396 8.2832 2.64603 9.09697 2.17948C9.89547 1.72167 10.4885 1.5247 11.0839 1.50286Z" fill="#45474B"/>
</svg>
