<svg width="6" height="22" viewBox="0 0 6 22" fill="none" xmlns="http://www.w3.org/2000/svg">
<path fill-rule="evenodd" clip-rule="evenodd" d="M2.75 0C1.23122 0 0 1.23122 0 2.75C0 4.26878 1.23122 5.5 2.75 5.5C4.26878 5.5 5.5 4.26878 5.5 2.75C5.5 1.23122 4.26878 0 2.75 0ZM1.5 2.75C1.5 2.05964 2.05964 1.5 2.75 1.5C3.44036 1.5 4 2.05964 4 2.75C4 3.44036 3.44036 4 2.75 4C2.05964 4 1.5 3.44036 1.5 2.75Z" fill="#2D264B"/>
<path fill-rule="evenodd" clip-rule="evenodd" d="M2.75 8C1.23122 8 0 9.23122 0 10.75C0 12.2688 1.23122 13.5 2.75 13.5C4.26878 13.5 5.5 12.2688 5.5 10.75C5.5 9.23122 4.26878 8 2.75 8ZM1.5 10.75C1.5 10.0596 2.05964 9.5 2.75 9.5C3.44036 9.5 4 10.0596 4 10.75C4 11.4404 3.44036 12 2.75 12C2.05964 12 1.5 11.4404 1.5 10.75Z" fill="#2D264B"/>
<path fill-rule="evenodd" clip-rule="evenodd" d="M2.75 16C1.23122 16 0 17.2312 0 18.75C0 20.2688 1.23122 21.5 2.75 21.5C4.26878 21.5 5.5 20.2688 5.5 18.75C5.5 17.2312 4.26878 16 2.75 16ZM1.5 18.75C1.5 18.0596 2.05964 17.5 2.75 17.5C3.44036 17.5 4 18.0596 4 18.75C4 19.4404 3.44036 20 2.75 20C2.05964 20 1.5 19.4404 1.5 18.75Z" fill="#2D264B"/>
</svg>
